<mxfile host="app.diagrams.net" agent="Mozilla/5.0 (Macintosh; Intel Mac OS X 10_15_7) AppleWebKit/537.36 (KHTML, like Gecko) Chrome/133.0.0.0 Safari/537.36" version="26.0.14">
  <diagram name="Page-1" id="yL1Ndt8OvmEDYrH_oRAA">
    <mxGraphModel dx="3976" dy="2579" grid="1" gridSize="10" guides="1" tooltips="1" connect="1" arrows="1" fold="1" page="1" pageScale="1" pageWidth="2336" pageHeight="1654" background="#FFFFFF" math="0" shadow="0">
      <root>
        <mxCell id="0" />
        <mxCell id="1" parent="0" />
        <mxCell id="Cf2vP5LmH0_KUs7tUMQI-32" style="edgeStyle=orthogonalEdgeStyle;rounded=0;orthogonalLoop=1;jettySize=auto;html=1;exitX=0.5;exitY=1;exitDx=0;exitDy=0;entryX=0.5;entryY=0;entryDx=0;entryDy=0;" edge="1" parent="1" source="Cf2vP5LmH0_KUs7tUMQI-1" target="Cf2vP5LmH0_KUs7tUMQI-2">
          <mxGeometry relative="1" as="geometry" />
        </mxCell>
        <mxCell id="Cf2vP5LmH0_KUs7tUMQI-59" style="edgeStyle=orthogonalEdgeStyle;rounded=0;orthogonalLoop=1;jettySize=auto;html=1;exitX=1;exitY=0.75;exitDx=0;exitDy=0;entryX=0;entryY=0.5;entryDx=0;entryDy=0;" edge="1" parent="1" source="Cf2vP5LmH0_KUs7tUMQI-1" target="Cf2vP5LmH0_KUs7tUMQI-11">
          <mxGeometry relative="1" as="geometry" />
        </mxCell>
        <mxCell id="Cf2vP5LmH0_KUs7tUMQI-60" style="edgeStyle=orthogonalEdgeStyle;rounded=0;orthogonalLoop=1;jettySize=auto;html=1;exitX=1;exitY=0.25;exitDx=0;exitDy=0;entryX=0;entryY=0.25;entryDx=0;entryDy=0;strokeColor=#FF0000;" edge="1" parent="1" source="Cf2vP5LmH0_KUs7tUMQI-1" target="Cf2vP5LmH0_KUs7tUMQI-15">
          <mxGeometry relative="1" as="geometry">
            <Array as="points">
              <mxPoint x="1340" y="290" />
              <mxPoint x="1340" y="550" />
            </Array>
          </mxGeometry>
        </mxCell>
        <mxCell id="Cf2vP5LmH0_KUs7tUMQI-1" value="user" style="swimlane;whiteSpace=wrap;html=1;" vertex="1" parent="1">
          <mxGeometry x="750" y="240" width="200" height="200" as="geometry" />
        </mxCell>
        <mxCell id="Cf2vP5LmH0_KUs7tUMQI-33" style="edgeStyle=orthogonalEdgeStyle;rounded=0;orthogonalLoop=1;jettySize=auto;html=1;exitX=0;exitY=0;exitDx=0;exitDy=0;entryX=0.5;entryY=1;entryDx=0;entryDy=0;" edge="1" parent="1" source="Cf2vP5LmH0_KUs7tUMQI-2" target="Cf2vP5LmH0_KUs7tUMQI-6">
          <mxGeometry relative="1" as="geometry" />
        </mxCell>
        <mxCell id="Cf2vP5LmH0_KUs7tUMQI-35" style="edgeStyle=orthogonalEdgeStyle;rounded=0;orthogonalLoop=1;jettySize=auto;html=1;exitX=1;exitY=0.25;exitDx=0;exitDy=0;entryX=0;entryY=0.5;entryDx=0;entryDy=0;" edge="1" parent="1" source="Cf2vP5LmH0_KUs7tUMQI-2" target="Cf2vP5LmH0_KUs7tUMQI-28">
          <mxGeometry relative="1" as="geometry">
            <mxPoint x="1030" y="800" as="targetPoint" />
          </mxGeometry>
        </mxCell>
        <mxCell id="Cf2vP5LmH0_KUs7tUMQI-36" style="edgeStyle=orthogonalEdgeStyle;rounded=0;orthogonalLoop=1;jettySize=auto;html=1;exitX=1;exitY=0;exitDx=0;exitDy=0;" edge="1" parent="1" source="Cf2vP5LmH0_KUs7tUMQI-2">
          <mxGeometry relative="1" as="geometry">
            <mxPoint x="1430" y="570" as="targetPoint" />
          </mxGeometry>
        </mxCell>
        <mxCell id="Cf2vP5LmH0_KUs7tUMQI-37" style="edgeStyle=orthogonalEdgeStyle;rounded=0;orthogonalLoop=1;jettySize=auto;html=1;exitX=0.75;exitY=0;exitDx=0;exitDy=0;entryX=0;entryY=1;entryDx=0;entryDy=0;" edge="1" parent="1" source="Cf2vP5LmH0_KUs7tUMQI-2" target="Cf2vP5LmH0_KUs7tUMQI-11">
          <mxGeometry relative="1" as="geometry" />
        </mxCell>
        <mxCell id="Cf2vP5LmH0_KUs7tUMQI-38" style="edgeStyle=orthogonalEdgeStyle;rounded=0;orthogonalLoop=1;jettySize=auto;html=1;exitX=0.5;exitY=0;exitDx=0;exitDy=0;entryX=0;entryY=0.5;entryDx=0;entryDy=0;" edge="1" parent="1" source="Cf2vP5LmH0_KUs7tUMQI-2" target="Cf2vP5LmH0_KUs7tUMQI-26">
          <mxGeometry relative="1" as="geometry">
            <Array as="points">
              <mxPoint x="720" y="190" />
              <mxPoint x="880" y="190" />
              <mxPoint x="880" y="-10" />
              <mxPoint x="1490" y="-10" />
              <mxPoint x="1490" y="60" />
            </Array>
          </mxGeometry>
        </mxCell>
        <mxCell id="Cf2vP5LmH0_KUs7tUMQI-41" style="edgeStyle=orthogonalEdgeStyle;rounded=0;orthogonalLoop=1;jettySize=auto;html=1;exitX=1;exitY=1;exitDx=0;exitDy=0;entryX=0;entryY=0;entryDx=0;entryDy=0;" edge="1" parent="1" source="Cf2vP5LmH0_KUs7tUMQI-2" target="Cf2vP5LmH0_KUs7tUMQI-19">
          <mxGeometry relative="1" as="geometry" />
        </mxCell>
        <mxCell id="Cf2vP5LmH0_KUs7tUMQI-42" style="edgeStyle=orthogonalEdgeStyle;rounded=0;orthogonalLoop=1;jettySize=auto;html=1;exitX=0.75;exitY=1;exitDx=0;exitDy=0;" edge="1" parent="1" source="Cf2vP5LmH0_KUs7tUMQI-2">
          <mxGeometry relative="1" as="geometry">
            <mxPoint x="1050" y="990" as="targetPoint" />
          </mxGeometry>
        </mxCell>
        <mxCell id="Cf2vP5LmH0_KUs7tUMQI-43" style="edgeStyle=orthogonalEdgeStyle;rounded=0;orthogonalLoop=1;jettySize=auto;html=1;exitX=0.5;exitY=1;exitDx=0;exitDy=0;entryX=0;entryY=0.25;entryDx=0;entryDy=0;" edge="1" parent="1" source="Cf2vP5LmH0_KUs7tUMQI-2" target="Cf2vP5LmH0_KUs7tUMQI-17">
          <mxGeometry relative="1" as="geometry" />
        </mxCell>
        <mxCell id="Cf2vP5LmH0_KUs7tUMQI-44" style="edgeStyle=orthogonalEdgeStyle;rounded=0;orthogonalLoop=1;jettySize=auto;html=1;exitX=0.25;exitY=1;exitDx=0;exitDy=0;entryX=0.75;entryY=0;entryDx=0;entryDy=0;" edge="1" parent="1" source="Cf2vP5LmH0_KUs7tUMQI-2" target="Cf2vP5LmH0_KUs7tUMQI-18">
          <mxGeometry relative="1" as="geometry" />
        </mxCell>
        <mxCell id="Cf2vP5LmH0_KUs7tUMQI-45" style="edgeStyle=orthogonalEdgeStyle;rounded=0;orthogonalLoop=1;jettySize=auto;html=1;exitX=0;exitY=1;exitDx=0;exitDy=0;entryX=0.75;entryY=0;entryDx=0;entryDy=0;" edge="1" parent="1" source="Cf2vP5LmH0_KUs7tUMQI-2" target="Cf2vP5LmH0_KUs7tUMQI-21">
          <mxGeometry relative="1" as="geometry" />
        </mxCell>
        <mxCell id="Cf2vP5LmH0_KUs7tUMQI-46" style="edgeStyle=orthogonalEdgeStyle;rounded=0;orthogonalLoop=1;jettySize=auto;html=1;exitX=0;exitY=0.75;exitDx=0;exitDy=0;entryX=0.829;entryY=0.015;entryDx=0;entryDy=0;entryPerimeter=0;" edge="1" parent="1" source="Cf2vP5LmH0_KUs7tUMQI-2" target="Cf2vP5LmH0_KUs7tUMQI-29">
          <mxGeometry relative="1" as="geometry">
            <Array as="points">
              <mxPoint x="550" y="760" />
              <mxPoint x="550" y="850" />
              <mxPoint x="130" y="850" />
              <mxPoint x="130" y="960" />
              <mxPoint x="126" y="960" />
            </Array>
          </mxGeometry>
        </mxCell>
        <mxCell id="Cf2vP5LmH0_KUs7tUMQI-49" style="edgeStyle=orthogonalEdgeStyle;rounded=0;orthogonalLoop=1;jettySize=auto;html=1;exitX=0;exitY=0.25;exitDx=0;exitDy=0;entryX=1;entryY=0.75;entryDx=0;entryDy=0;" edge="1" parent="1" source="Cf2vP5LmH0_KUs7tUMQI-2" target="Cf2vP5LmH0_KUs7tUMQI-13">
          <mxGeometry relative="1" as="geometry">
            <Array as="points">
              <mxPoint x="480" y="660" />
              <mxPoint x="480" y="530" />
              <mxPoint x="300" y="530" />
            </Array>
          </mxGeometry>
        </mxCell>
        <mxCell id="Cf2vP5LmH0_KUs7tUMQI-50" style="edgeStyle=orthogonalEdgeStyle;rounded=0;orthogonalLoop=1;jettySize=auto;html=1;exitX=0;exitY=0.5;exitDx=0;exitDy=0;entryX=1;entryY=0.5;entryDx=0;entryDy=0;" edge="1" parent="1" source="Cf2vP5LmH0_KUs7tUMQI-2" target="Cf2vP5LmH0_KUs7tUMQI-30">
          <mxGeometry relative="1" as="geometry" />
        </mxCell>
        <mxCell id="Cf2vP5LmH0_KUs7tUMQI-67" style="edgeStyle=orthogonalEdgeStyle;rounded=0;orthogonalLoop=1;jettySize=auto;html=1;entryX=1;entryY=0.75;entryDx=0;entryDy=0;strokeColor=#FF0000;" edge="1" parent="1" target="Cf2vP5LmH0_KUs7tUMQI-23">
          <mxGeometry relative="1" as="geometry">
            <mxPoint x="620" y="750" as="sourcePoint" />
            <Array as="points">
              <mxPoint x="620" y="740" />
              <mxPoint x="490" y="740" />
              <mxPoint x="490" y="870" />
              <mxPoint x="240" y="870" />
              <mxPoint x="240" y="777" />
            </Array>
          </mxGeometry>
        </mxCell>
        <mxCell id="Cf2vP5LmH0_KUs7tUMQI-2" value="etudiant" style="swimlane;whiteSpace=wrap;html=1;" vertex="1" parent="1">
          <mxGeometry x="620" y="610" width="200" height="200" as="geometry" />
        </mxCell>
        <mxCell id="Cf2vP5LmH0_KUs7tUMQI-34" style="edgeStyle=orthogonalEdgeStyle;rounded=0;orthogonalLoop=1;jettySize=auto;html=1;exitX=0.5;exitY=1;exitDx=0;exitDy=0;entryX=0.5;entryY=0;entryDx=0;entryDy=0;" edge="1" parent="1" source="Cf2vP5LmH0_KUs7tUMQI-3" target="Cf2vP5LmH0_KUs7tUMQI-6">
          <mxGeometry relative="1" as="geometry" />
        </mxCell>
        <mxCell id="Cf2vP5LmH0_KUs7tUMQI-39" style="edgeStyle=orthogonalEdgeStyle;rounded=0;orthogonalLoop=1;jettySize=auto;html=1;exitX=0;exitY=0.75;exitDx=0;exitDy=0;entryX=1;entryY=0.5;entryDx=0;entryDy=0;" edge="1" parent="1" source="Cf2vP5LmH0_KUs7tUMQI-3" target="Cf2vP5LmH0_KUs7tUMQI-13">
          <mxGeometry relative="1" as="geometry" />
        </mxCell>
        <mxCell id="Cf2vP5LmH0_KUs7tUMQI-40" style="edgeStyle=orthogonalEdgeStyle;rounded=0;orthogonalLoop=1;jettySize=auto;html=1;exitX=0;exitY=0.5;exitDx=0;exitDy=0;entryX=1;entryY=0.5;entryDx=0;entryDy=0;" edge="1" parent="1" source="Cf2vP5LmH0_KUs7tUMQI-3" target="Cf2vP5LmH0_KUs7tUMQI-27">
          <mxGeometry relative="1" as="geometry" />
        </mxCell>
        <mxCell id="Cf2vP5LmH0_KUs7tUMQI-53" style="edgeStyle=orthogonalEdgeStyle;rounded=0;orthogonalLoop=1;jettySize=auto;html=1;entryX=1;entryY=0.5;entryDx=0;entryDy=0;" edge="1" parent="1" target="Cf2vP5LmH0_KUs7tUMQI-5">
          <mxGeometry relative="1" as="geometry">
            <mxPoint x="420" y="160" as="sourcePoint" />
            <Array as="points">
              <mxPoint x="60" y="161" />
              <mxPoint x="60" y="240" />
              <mxPoint x="-70" y="240" />
            </Array>
          </mxGeometry>
        </mxCell>
        <mxCell id="Cf2vP5LmH0_KUs7tUMQI-63" style="edgeStyle=orthogonalEdgeStyle;rounded=0;orthogonalLoop=1;jettySize=auto;html=1;exitX=1;exitY=0.25;exitDx=0;exitDy=0;entryX=0;entryY=0.75;entryDx=0;entryDy=0;" edge="1" parent="1" source="Cf2vP5LmH0_KUs7tUMQI-3" target="Cf2vP5LmH0_KUs7tUMQI-62">
          <mxGeometry relative="1" as="geometry">
            <mxPoint x="650" y="79.66666666666652" as="targetPoint" />
          </mxGeometry>
        </mxCell>
        <mxCell id="Cf2vP5LmH0_KUs7tUMQI-72" style="edgeStyle=orthogonalEdgeStyle;rounded=0;orthogonalLoop=1;jettySize=auto;html=1;exitX=0.25;exitY=0;exitDx=0;exitDy=0;entryX=0.75;entryY=0;entryDx=0;entryDy=0;" edge="1" parent="1" source="Cf2vP5LmH0_KUs7tUMQI-3" target="Cf2vP5LmH0_KUs7tUMQI-4">
          <mxGeometry relative="1" as="geometry">
            <Array as="points">
              <mxPoint x="470" y="-70" />
              <mxPoint x="-428" y="-70" />
            </Array>
          </mxGeometry>
        </mxCell>
        <mxCell id="Cf2vP5LmH0_KUs7tUMQI-73" style="edgeStyle=orthogonalEdgeStyle;rounded=0;orthogonalLoop=1;jettySize=auto;html=1;exitX=0;exitY=0.25;exitDx=0;exitDy=0;entryX=1;entryY=0.25;entryDx=0;entryDy=0;strokeColor=#FF0000;" edge="1" parent="1" source="Cf2vP5LmH0_KUs7tUMQI-3" target="Cf2vP5LmH0_KUs7tUMQI-7">
          <mxGeometry relative="1" as="geometry">
            <Array as="points">
              <mxPoint x="420" y="100" />
              <mxPoint x="20" y="100" />
              <mxPoint x="20" y="180" />
              <mxPoint x="-310" y="180" />
              <mxPoint x="-310" y="420" />
            </Array>
          </mxGeometry>
        </mxCell>
        <mxCell id="Cf2vP5LmH0_KUs7tUMQI-3" value="intervenant" style="swimlane;whiteSpace=wrap;html=1;" vertex="1" parent="1">
          <mxGeometry x="420" y="30" width="200" height="200" as="geometry" />
        </mxCell>
        <mxCell id="Cf2vP5LmH0_KUs7tUMQI-71" style="edgeStyle=orthogonalEdgeStyle;rounded=0;orthogonalLoop=1;jettySize=auto;html=1;exitX=0;exitY=0.75;exitDx=0;exitDy=0;entryX=0.25;entryY=0;entryDx=0;entryDy=0;" edge="1" parent="1" source="Cf2vP5LmH0_KUs7tUMQI-4" target="Cf2vP5LmH0_KUs7tUMQI-7">
          <mxGeometry relative="1" as="geometry" />
        </mxCell>
        <mxCell id="Cf2vP5LmH0_KUs7tUMQI-74" style="edgeStyle=orthogonalEdgeStyle;rounded=0;orthogonalLoop=1;jettySize=auto;html=1;exitX=1;exitY=0.25;exitDx=0;exitDy=0;entryX=0;entryY=0.25;entryDx=0;entryDy=0;strokeColor=#FF0000;" edge="1" parent="1" source="Cf2vP5LmH0_KUs7tUMQI-4" target="Cf2vP5LmH0_KUs7tUMQI-8">
          <mxGeometry relative="1" as="geometry" />
        </mxCell>
        <mxCell id="Cf2vP5LmH0_KUs7tUMQI-4" value="salle" style="swimlane;whiteSpace=wrap;html=1;" vertex="1" parent="1">
          <mxGeometry x="-570" y="80" width="190" height="200" as="geometry" />
        </mxCell>
        <mxCell id="Cf2vP5LmH0_KUs7tUMQI-68" style="edgeStyle=orthogonalEdgeStyle;rounded=0;orthogonalLoop=1;jettySize=auto;html=1;exitX=0;exitY=0.25;exitDx=0;exitDy=0;entryX=1;entryY=0.75;entryDx=0;entryDy=0;" edge="1" parent="1" source="Cf2vP5LmH0_KUs7tUMQI-5" target="Cf2vP5LmH0_KUs7tUMQI-4">
          <mxGeometry relative="1" as="geometry" />
        </mxCell>
        <mxCell id="Cf2vP5LmH0_KUs7tUMQI-5" value="cours" style="swimlane;whiteSpace=wrap;html=1;" vertex="1" parent="1">
          <mxGeometry x="-270" y="200" width="200" height="200" as="geometry" />
        </mxCell>
        <mxCell id="Cf2vP5LmH0_KUs7tUMQI-6" value="note_absence" style="swimlane;whiteSpace=wrap;html=1;" vertex="1" parent="1">
          <mxGeometry x="410" y="290" width="200" height="200" as="geometry" />
        </mxCell>
        <mxCell id="Cf2vP5LmH0_KUs7tUMQI-70" style="edgeStyle=orthogonalEdgeStyle;rounded=0;orthogonalLoop=1;jettySize=auto;html=1;exitX=0.75;exitY=0;exitDx=0;exitDy=0;entryX=0;entryY=0.75;entryDx=0;entryDy=0;" edge="1" parent="1" source="Cf2vP5LmH0_KUs7tUMQI-7" target="Cf2vP5LmH0_KUs7tUMQI-5">
          <mxGeometry relative="1" as="geometry" />
        </mxCell>
        <mxCell id="Cf2vP5LmH0_KUs7tUMQI-7" value="matiere" style="swimlane;whiteSpace=wrap;html=1;" vertex="1" parent="1">
          <mxGeometry x="-660" y="370" width="200" height="200" as="geometry" />
        </mxCell>
        <mxCell id="Cf2vP5LmH0_KUs7tUMQI-56" style="edgeStyle=orthogonalEdgeStyle;rounded=0;orthogonalLoop=1;jettySize=auto;html=1;exitX=0.5;exitY=0;exitDx=0;exitDy=0;entryX=0.25;entryY=1;entryDx=0;entryDy=0;" edge="1" parent="1" source="Cf2vP5LmH0_KUs7tUMQI-8" target="Cf2vP5LmH0_KUs7tUMQI-5">
          <mxGeometry relative="1" as="geometry" />
        </mxCell>
        <mxCell id="Cf2vP5LmH0_KUs7tUMQI-57" style="edgeStyle=orthogonalEdgeStyle;rounded=0;orthogonalLoop=1;jettySize=auto;html=1;exitX=1;exitY=0;exitDx=0;exitDy=0;entryX=0;entryY=1;entryDx=0;entryDy=0;strokeColor=#FF0000;" edge="1" parent="1" source="Cf2vP5LmH0_KUs7tUMQI-8" target="Cf2vP5LmH0_KUs7tUMQI-3">
          <mxGeometry relative="1" as="geometry">
            <Array as="points">
              <mxPoint x="-20" y="440" />
              <mxPoint x="-20" y="260" />
              <mxPoint x="420" y="260" />
            </Array>
          </mxGeometry>
        </mxCell>
        <mxCell id="Cf2vP5LmH0_KUs7tUMQI-69" style="edgeStyle=orthogonalEdgeStyle;rounded=0;orthogonalLoop=1;jettySize=auto;html=1;exitX=0;exitY=0.5;exitDx=0;exitDy=0;entryX=1;entryY=0.5;entryDx=0;entryDy=0;" edge="1" parent="1" source="Cf2vP5LmH0_KUs7tUMQI-8" target="Cf2vP5LmH0_KUs7tUMQI-7">
          <mxGeometry relative="1" as="geometry" />
        </mxCell>
        <mxCell id="Cf2vP5LmH0_KUs7tUMQI-8" value="plannig" style="swimlane;whiteSpace=wrap;html=1;" vertex="1" parent="1">
          <mxGeometry x="-300" y="440" width="200" height="200" as="geometry" />
        </mxCell>
        <mxCell id="Cf2vP5LmH0_KUs7tUMQI-48" style="edgeStyle=orthogonalEdgeStyle;rounded=0;orthogonalLoop=1;jettySize=auto;html=1;exitX=0.5;exitY=0;exitDx=0;exitDy=0;entryX=0.25;entryY=1;entryDx=0;entryDy=0;" edge="1" parent="1" source="Cf2vP5LmH0_KUs7tUMQI-11" target="Cf2vP5LmH0_KUs7tUMQI-20">
          <mxGeometry relative="1" as="geometry" />
        </mxCell>
        <mxCell id="Cf2vP5LmH0_KUs7tUMQI-61" style="edgeStyle=orthogonalEdgeStyle;rounded=0;orthogonalLoop=1;jettySize=auto;html=1;exitX=1;exitY=0.5;exitDx=0;exitDy=0;entryX=0.5;entryY=1;entryDx=0;entryDy=0;strokeColor=#FF0000;" edge="1" parent="1" source="Cf2vP5LmH0_KUs7tUMQI-11" target="Cf2vP5LmH0_KUs7tUMQI-26">
          <mxGeometry relative="1" as="geometry">
            <Array as="points">
              <mxPoint x="1260" y="370" />
              <mxPoint x="1650" y="370" />
            </Array>
          </mxGeometry>
        </mxCell>
        <mxCell id="Cf2vP5LmH0_KUs7tUMQI-11" value="administration" style="swimlane;whiteSpace=wrap;html=1;" vertex="1" parent="1">
          <mxGeometry x="1060" y="320" width="200" height="200" as="geometry" />
        </mxCell>
        <mxCell id="Cf2vP5LmH0_KUs7tUMQI-52" style="edgeStyle=orthogonalEdgeStyle;rounded=0;orthogonalLoop=1;jettySize=auto;html=1;exitX=0.25;exitY=1;exitDx=0;exitDy=0;entryX=0.75;entryY=0;entryDx=0;entryDy=0;" edge="1" parent="1" source="Cf2vP5LmH0_KUs7tUMQI-13" target="Cf2vP5LmH0_KUs7tUMQI-23">
          <mxGeometry relative="1" as="geometry" />
        </mxCell>
        <mxCell id="Cf2vP5LmH0_KUs7tUMQI-54" style="edgeStyle=orthogonalEdgeStyle;rounded=0;orthogonalLoop=1;jettySize=auto;html=1;exitX=0;exitY=0.75;exitDx=0;exitDy=0;entryX=1;entryY=0.25;entryDx=0;entryDy=0;" edge="1" parent="1" source="Cf2vP5LmH0_KUs7tUMQI-13" target="Cf2vP5LmH0_KUs7tUMQI-8">
          <mxGeometry relative="1" as="geometry" />
        </mxCell>
        <mxCell id="Cf2vP5LmH0_KUs7tUMQI-58" style="edgeStyle=orthogonalEdgeStyle;rounded=0;orthogonalLoop=1;jettySize=auto;html=1;entryX=0.75;entryY=0;entryDx=0;entryDy=0;" edge="1" parent="1" target="Cf2vP5LmH0_KUs7tUMQI-22">
          <mxGeometry relative="1" as="geometry">
            <mxPoint x="100" y="480" as="sourcePoint" />
            <Array as="points">
              <mxPoint x="100" y="490" />
              <mxPoint x="10" y="490" />
              <mxPoint x="10" y="600" />
              <mxPoint x="-60" y="600" />
              <mxPoint x="-60" y="720" />
              <mxPoint x="-130" y="720" />
            </Array>
          </mxGeometry>
        </mxCell>
        <mxCell id="Cf2vP5LmH0_KUs7tUMQI-13" value="classe" style="swimlane;whiteSpace=wrap;html=1;" vertex="1" parent="1">
          <mxGeometry x="100" y="310" width="200" height="200" as="geometry" />
        </mxCell>
        <mxCell id="Cf2vP5LmH0_KUs7tUMQI-47" style="edgeStyle=orthogonalEdgeStyle;rounded=0;orthogonalLoop=1;jettySize=auto;html=1;exitX=0.25;exitY=0;exitDx=0;exitDy=0;entryX=1;entryY=0.5;entryDx=0;entryDy=0;" edge="1" parent="1" source="Cf2vP5LmH0_KUs7tUMQI-15" target="Cf2vP5LmH0_KUs7tUMQI-20">
          <mxGeometry relative="1" as="geometry" />
        </mxCell>
        <mxCell id="Cf2vP5LmH0_KUs7tUMQI-15" value="relation entrprise" style="swimlane;whiteSpace=wrap;html=1;" vertex="1" parent="1">
          <mxGeometry x="1430" y="500" width="200" height="200" as="geometry" />
        </mxCell>
        <mxCell id="Cf2vP5LmH0_KUs7tUMQI-16" value="cv-numérique" style="swimlane;whiteSpace=wrap;html=1;" vertex="1" parent="1">
          <mxGeometry x="1050" y="960" width="200" height="200" as="geometry" />
        </mxCell>
        <mxCell id="Cf2vP5LmH0_KUs7tUMQI-17" value="livret-apprentissage" style="swimlane;whiteSpace=wrap;html=1;" vertex="1" parent="1">
          <mxGeometry x="760" y="960" width="200" height="200" as="geometry" />
        </mxCell>
        <mxCell id="Cf2vP5LmH0_KUs7tUMQI-18" value="mes-logiciel" style="swimlane;whiteSpace=wrap;html=1;" vertex="1" parent="1">
          <mxGeometry x="490" y="960" width="200" height="200" as="geometry" />
        </mxCell>
        <mxCell id="Cf2vP5LmH0_KUs7tUMQI-19" value="contact" style="swimlane;whiteSpace=wrap;html=1;" vertex="1" parent="1">
          <mxGeometry x="1370" y="960" width="200" height="200" as="geometry" />
        </mxCell>
        <mxCell id="Cf2vP5LmH0_KUs7tUMQI-20" value="offre-partenaire" style="swimlane;whiteSpace=wrap;html=1;" vertex="1" parent="1">
          <mxGeometry x="1110" y="20" width="200" height="200" as="geometry" />
        </mxCell>
        <mxCell id="Cf2vP5LmH0_KUs7tUMQI-21" value="projet-pedagogique" style="swimlane;whiteSpace=wrap;html=1;" vertex="1" parent="1">
          <mxGeometry x="220" y="960" width="200" height="200" as="geometry" />
        </mxCell>
        <mxCell id="Cf2vP5LmH0_KUs7tUMQI-22" value="support-cour" style="swimlane;whiteSpace=wrap;html=1;" vertex="1" parent="1">
          <mxGeometry x="-280" y="760" width="200" height="200" as="geometry" />
        </mxCell>
        <mxCell id="Cf2vP5LmH0_KUs7tUMQI-23" value="syllabus-cour" style="swimlane;whiteSpace=wrap;html=1;" vertex="1" parent="1">
          <mxGeometry x="-10" y="627" width="200" height="200" as="geometry" />
        </mxCell>
        <mxCell id="Cf2vP5LmH0_KUs7tUMQI-26" value="documents annuel" style="swimlane;whiteSpace=wrap;html=1;" vertex="1" parent="1">
          <mxGeometry x="1550" y="-40" width="200" height="200" as="geometry" />
        </mxCell>
        <mxCell id="Cf2vP5LmH0_KUs7tUMQI-27" value="trombioscope intervenant" style="swimlane;whiteSpace=wrap;html=1;" vertex="1" parent="1">
          <mxGeometry x="-230" y="-40" width="200" height="200" as="geometry" />
        </mxCell>
        <mxCell id="Cf2vP5LmH0_KUs7tUMQI-28" value="document-inscription" style="swimlane;whiteSpace=wrap;html=1;" vertex="1" parent="1">
          <mxGeometry x="1040" y="670" width="200" height="200" as="geometry" />
        </mxCell>
        <mxCell id="Cf2vP5LmH0_KUs7tUMQI-29" value="trombioscope-etudiant" style="swimlane;whiteSpace=wrap;html=1;" vertex="1" parent="1">
          <mxGeometry x="-40" y="960" width="200" height="200" as="geometry" />
        </mxCell>
        <mxCell id="Cf2vP5LmH0_KUs7tUMQI-31" style="edgeStyle=orthogonalEdgeStyle;rounded=0;orthogonalLoop=1;jettySize=auto;html=1;exitX=1;exitY=0.5;exitDx=0;exitDy=0;entryX=0;entryY=0.5;entryDx=0;entryDy=0;" edge="1" parent="1" source="Cf2vP5LmH0_KUs7tUMQI-30" target="Cf2vP5LmH0_KUs7tUMQI-2">
          <mxGeometry relative="1" as="geometry" />
        </mxCell>
        <mxCell id="Cf2vP5LmH0_KUs7tUMQI-51" style="edgeStyle=orthogonalEdgeStyle;rounded=0;orthogonalLoop=1;jettySize=auto;html=1;exitX=0.75;exitY=0;exitDx=0;exitDy=0;strokeColor=#FF0000;" edge="1" parent="1" source="Cf2vP5LmH0_KUs7tUMQI-30">
          <mxGeometry relative="1" as="geometry">
            <mxPoint x="450" y="490" as="targetPoint" />
          </mxGeometry>
        </mxCell>
        <mxCell id="Cf2vP5LmH0_KUs7tUMQI-30" value="programme-open" style="swimlane;whiteSpace=wrap;html=1;" vertex="1" parent="1">
          <mxGeometry x="260" y="610" width="200" height="200" as="geometry" />
        </mxCell>
        <mxCell id="Cf2vP5LmH0_KUs7tUMQI-64" style="edgeStyle=orthogonalEdgeStyle;rounded=0;orthogonalLoop=1;jettySize=auto;html=1;exitX=0.25;exitY=1;exitDx=0;exitDy=0;entryX=0.25;entryY=0;entryDx=0;entryDy=0;" edge="1" parent="1" source="Cf2vP5LmH0_KUs7tUMQI-62" target="Cf2vP5LmH0_KUs7tUMQI-2">
          <mxGeometry relative="1" as="geometry">
            <Array as="points">
              <mxPoint x="720" y="180" />
              <mxPoint x="690" y="180" />
              <mxPoint x="690" y="375" />
              <mxPoint x="670" y="375" />
            </Array>
          </mxGeometry>
        </mxCell>
        <mxCell id="Cf2vP5LmH0_KUs7tUMQI-65" style="edgeStyle=orthogonalEdgeStyle;rounded=0;orthogonalLoop=1;jettySize=auto;html=1;exitX=1;exitY=0.75;exitDx=0;exitDy=0;entryX=0.25;entryY=0;entryDx=0;entryDy=0;strokeColor=#FF0000;" edge="1" parent="1" source="Cf2vP5LmH0_KUs7tUMQI-62" target="Cf2vP5LmH0_KUs7tUMQI-11">
          <mxGeometry relative="1" as="geometry">
            <Array as="points">
              <mxPoint x="1040" y="90" />
              <mxPoint x="1040" y="270" />
              <mxPoint x="1110" y="270" />
            </Array>
          </mxGeometry>
        </mxCell>
        <mxCell id="Cf2vP5LmH0_KUs7tUMQI-66" style="edgeStyle=orthogonalEdgeStyle;rounded=0;orthogonalLoop=1;jettySize=auto;html=1;exitX=1;exitY=0;exitDx=0;exitDy=0;entryX=0.5;entryY=0;entryDx=0;entryDy=0;strokeColor=#FF0000;" edge="1" parent="1" source="Cf2vP5LmH0_KUs7tUMQI-62" target="Cf2vP5LmH0_KUs7tUMQI-15">
          <mxGeometry relative="1" as="geometry" />
        </mxCell>
        <mxCell id="Cf2vP5LmH0_KUs7tUMQI-62" value="webmail" style="swimlane;whiteSpace=wrap;html=1;" vertex="1" parent="1">
          <mxGeometry x="670" y="-60" width="200" height="200" as="geometry" />
        </mxCell>
      </root>
    </mxGraphModel>
  </diagram>
</mxfile>
